<?xml version="1.0" encoding="utf-8"?>
<!-- Generator: Adobe Illustrator 22.1.0, SVG Export Plug-In . SVG Version: 6.00 Build 0)  -->
<svg version="1.1" id="Capa_1" xmlns="http://www.w3.org/2000/svg" xmlns:xlink="http://www.w3.org/1999/xlink" x="0px" y="0px"
	 viewBox="0 0 512 512" style="enable-background:new 0 0 512 512;" xml:space="preserve">
<style type="text/css">
	.st0{fill:#483949;}
</style>
<g>
	<path class="st0" d="M256,466.5c116.1,0,210.5-94.4,210.5-210.5S372.1,45.5,256,45.5S45.5,139.9,45.5,256
		c0,51.1,18.1,99.4,51.2,137.7L50,439.8c-9.5,9.4-2.9,25.6,10.5,25.7C60.5,465.5,255.9,466.5,256,466.5z M166.5,181.5h180
		c8.3,0,15,6.7,15,15s-6.7,15-15,15h-180c-8.3,0-15-6.7-15-15S158.2,181.5,166.5,181.5z M166.5,241.5h180c8.3,0,15,6.7,15,15
		s-6.7,15-15,15h-180c-8.3,0-15-6.7-15-15S158.2,241.5,166.5,241.5z M151.5,316.5c0-8.3,6.7-15,15-15h180c8.3,0,15,6.7,15,15
		s-6.7,15-15,15h-180C158.2,331.5,151.5,324.8,151.5,316.5z"/>
</g>
</svg>
