<?xml version="1.0" encoding="utf-8"?>
<!-- Generator: Adobe Illustrator 22.1.0, SVG Export Plug-In . SVG Version: 6.00 Build 0)  -->
<svg version="1.1" id="Capa_1" xmlns="http://www.w3.org/2000/svg" xmlns:xlink="http://www.w3.org/1999/xlink" x="0px" y="0px"
	 viewBox="0 0 490.7 490.7" style="enable-background:new 0 0 490.7 490.7;" xml:space="preserve">
<style type="text/css">
	.st0{fill:#483949;}
	.st1{fill:#FAFAFA;}
</style>
<path class="st0" d="M245.3,0C109.8,0,0,109.8,0,245.3s109.8,245.3,245.3,245.3s245.3-109.8,245.3-245.3
	C490.5,109.9,380.8,0.2,245.3,0z"/>
<path class="st1" d="M290.1,104.5c-19.1-18.3-49.3-18.3-68.4,0c-18.9,18.9-18.9,49.5,0,68.4c0,0,0,0,0,0l19.2,19.2H117.3
	C87.9,192.1,64,216,64,245.5c0,29.5,23.9,53.3,53.3,53.3h123.6L221.7,318c-17.5,20.2-15.4,50.7,4.8,68.3
	c18.3,15.9,45.4,15.8,63.6-0.1l118.3-118.3c12.5-12.5,12.5-32.8,0-45.2L290.1,104.5z"/>
</svg>
